<?xml version="1.0" encoding="UTF-8" standalone="no"?>
<!-- Created with Inkscape (http://www.inkscape.org/) -->

<svg
   width="2048"
   height="2048"
   viewBox="0 0 2048 2048"
   version="1.1"
   id="svg1"
   xml:space="preserve"
   inkscape:version="1.4.2 (ebf0e940d0, 2025-05-08)"
   sodipodi:docname="logo.svg"
   xmlns:inkscape="http://www.inkscape.org/namespaces/inkscape"
   xmlns:sodipodi="http://sodipodi.sourceforge.net/DTD/sodipodi-0.dtd"
   xmlns="http://www.w3.org/2000/svg"
   xmlns:svg="http://www.w3.org/2000/svg"><sodipodi:namedview
     id="namedview1"
     pagecolor="#ffffff"
     bordercolor="#000000"
     borderopacity="0.25"
     inkscape:showpageshadow="2"
     inkscape:pageopacity="0.0"
     inkscape:pagecheckerboard="0"
     inkscape:deskcolor="#d1d1d1"
     inkscape:document-units="px"
     inkscape:zoom="0.2016129"
     inkscape:cx="803.52"
     inkscape:cy="248"
     inkscape:window-width="2560"
     inkscape:window-height="1011"
     inkscape:window-x="0"
     inkscape:window-y="0"
     inkscape:window-maximized="1"
     inkscape:current-layer="layer1" /><defs
     id="defs1" /><g
     inkscape:label="Layer 1"
     inkscape:groupmode="layer"
     id="layer1"><path
       style="fill:#000000;stroke-width:2.34894"
       d="m 1321.6397,1383.287 c -63.8161,-8.4985 -117.4476,-53.5395 -138.2982,-116.1456 -6.2249,-18.6908 -6.2658,-19.2764 -7.6263,-109.2258 -1.5588,-103.0449 -1.9898,-105.4263 -22.5113,-124.3423 -19.4514,-17.9297 -15.8831,-17.412 -131.4332,-19.0671 -113.83038,-1.6304 -114.1174,-1.6645 -148.78264,-17.65253 -50.65792,-23.36415 -86.8407,-65.59893 -102.79018,-119.98305 -3.36677,-11.47987 -4.26091,-28.46942 -5.42127,-103.00711 -1.30679,-83.94366 -1.68168,-89.89092 -6.29448,-99.8564 -9.9765,-21.55317 -28.51647,-33.98553 -54.77433,-36.73001 -14.31241,-1.49595 -14.31241,-1.49595 -14.31241,-54.01252 0,-52.5166 0,-52.5166 20.76474,-52.5166 65.26964,0 125.84823,40.88698 151.38945,102.17899 11.68951,28.05163 11.74964,28.62412 13.20002,125.66841 1.54185,103.16414 1.52484,103.05322 18.81146,122.74158 19.11771,21.77388 25.41299,22.88349 130.34644,22.9748 132.6615,0.11533 158.3615,6.36953 204.84,49.84801 46.9824,43.94957 57.2792,78.91063 57.2792,194.47853 0,106.8798 7.7942,123.9752 58.7235,128.8011 15.2682,1.4467 15.2682,1.4467 15.2682,54.2979 0,59.0421 1.613,56.8754 -38.3787,51.5497 z m -632.24431,-52.4085 c 0,-52.5357 0,-52.5357 15.85536,-53.6738 25.92744,-1.861 42.12271,-12.8888 52.72527,-35.9017 5.41105,-11.7447 5.41105,-11.7447 5.41105,-152.0933 0,-77.1918 0.52851,-140.34081 1.17447,-140.33123 0.64596,0.009 3.57697,4.22455 6.51334,9.36662 14.3665,25.15804 49.02531,54.39141 83.81416,70.69401 20.29859,9.5122 20.29859,9.5122 19.59844,113.287 -0.70012,103.7748 -0.70012,103.7748 -8.13124,125.0304 -25.01254,71.5448 -85.00307,116.1575 -156.19611,116.1575 -20.76474,0 -20.76474,0 -20.76474,-52.5355 z M 1280.9346,956.63407 c -14.5697,-24.54595 -84.1842,-75.89369 -102.8923,-75.89369 -2.182,0 -4.4642,-149.58661 -2.8671,-187.91538 3.6831,-88.39316 72.2809,-157.82989 159.592,-161.54404 26.4256,-1.12414 26.4256,-1.12414 26.4256,51.71924 0,52.84338 0,52.84338 -14.5799,54.49293 -26.352,2.98139 -41.3726,12.19202 -52.4251,32.14722 -6.9867,12.61441 -6.9867,12.61441 -8.1611,153.10401 -1.108,132.5358 -1.3962,140.11596 -5.0921,133.88971 z"
       id="path3"
       sodipodi:nodetypes="sssssssssssssssssssssssssssssssssssssssss" /></g></svg>
